<svg xmlns="http://www.w3.org/2000/svg" version="1.1" xmlns:xlink="http://www.w3.org/1999/xlink" xmlns:svgjs="http://svgjs.dev/svgjs" width="1500" height="268" viewBox="0 0 1500 268"><g transform="matrix(1,0,0,1,-0.9090909090909918,0.6421416353188079)"><svg viewBox="0 0 396 71" data-background-color="#000000" preserveAspectRatio="xMidYMid meet" height="268" width="1500" xmlns="http://www.w3.org/2000/svg" xmlns:xlink="http://www.w3.org/1999/xlink"><g id="tight-bounds" transform="matrix(1,0,0,1,0.2400000000000091,-0.17011961234192086)"><svg viewBox="0 0 395.52 71.34023922468386" height="71.34023922468386" width="395.52"><g><svg viewBox="0 0 549.6365460469054 99.1383562945368" height="71.34023922468386" width="395.52"><g></g><g transform="matrix(1,0,0,1,154.11654604690546,0.24661282660331807)"><svg viewBox="0 0 395.52 98.64513064133017" height="98.64513064133017" width="395.52"><g id="textblocktransform"><svg viewBox="0 0 395.52 98.64513064133017" height="98.64513064133017" width="395.52" id="textblock"><g><svg viewBox="0 0 395.52 98.64513064133017" height="98.64513064133017" width="395.52"><g transform="matrix(1,0,0,1,0,0)"><svg width="395.52" viewBox="1.95 -31.74 164.44 41.019999999999996" height="98.64513064133017" data-palette-color="url(#d010a2e0-036e-4497-b17c-d0d147ef729e)"></svg></g></svg></g></svg></g></svg></g><g transform="matrix(1,0,0,1,0,0.24661282660331807)"><svg viewBox="0 0 98.64513064133017 98.64513064133017" height="98.64513064133017" width="98.64513064133017"><g><svg xmlns:x="http://ns.adobe.com/Extensibility/1.0/" xmlns:i="http://ns.adobe.com/AdobeIllustrator/10.0/" xmlns:graph="http://ns.adobe.com/Graphs/1.0/" xmlns="http://www.w3.org/2000/svg" xmlns:xlink="http://www.w3.org/1999/xlink" version="1.1" x="0" y="0" viewBox="6 6 52 52" enable-background="new 0 0 64 64" xml:space="preserve" height="98.64513064133017" width="98.64513064133017" class="icon-icon-0" data-fill-palette-color="accent" id="icon-0"></svg><g></g></g></svg></g></svg></g><defs></defs><mask id="a716149a-54d5-4ff3-bc86-982da478066d"><g id="SvgjsG1811"><svg viewBox="0 0 395.52 71.34023922468386" height="71.34023922468386" width="395.52"><g><svg viewBox="0 0 549.6365460469054 99.1383562945368" height="71.34023922468386" width="395.52"><g><rect width="8.895919683009977" height="99.1383562945368" x="121.93287850261282" y="0" fill="white" opacity="1" stroke-width="0" stroke="transparent" fill-opacity="1" class="rect-qz-0" rx="1%" id="SvgjsRect1810" data-palette-color="url(#d010a2e0-036e-4497-b17c-d0d147ef729e)"></rect></g><g transform="matrix(1,0,0,1,154.11654604690546,0.24661282660331807)"><svg viewBox="0 0 395.52 98.64513064133017" height="98.64513064133017" width="395.52"><g id="SvgjsG1809"><svg viewBox="0 0 395.52 98.64513064133017" height="98.64513064133017" width="395.52" id="SvgjsSvg1808"><g><svg viewBox="0 0 395.52 98.64513064133017" height="98.64513064133017" width="395.52"><g transform="matrix(1,0,0,1,0,0)"><svg width="395.52" viewBox="1.95 -31.74 164.44 41.019999999999996" height="98.64513064133017" data-palette-color="url(#d010a2e0-036e-4497-b17c-d0d147ef729e)"><path d="M10.06-28.03L15.38-28.03Q19.73-28.03 21-24.12L21-24.12Q21.39-22.85 21.39-21.39L21.39-21.39Q21.39-15.04 15.72-14.4L15.72-14.4Q15.14-14.36 14.55-14.36L14.55-14.36 10.06-14.36 10.06-28.03ZM1.95 0L14.94 0Q14.94-1.07 14.16-1.22L14.16-1.22Q13.92-1.27 13.67-1.27L13.67-1.27 10.06-1.27 10.06-12.94 14.36-12.94Q22.36-12.94 24.95-17.48L24.95-17.48Q25.98-19.19 25.98-21.44L25.98-21.44Q25.98-26.27 21.78-28.22L21.78-28.22Q19.53-29.3 16.41-29.3L16.41-29.3 1.95-29.3 1.95-28.03 5.86-28.03 5.86-1.27 1.95-1.27 1.95 0ZM46.53 0.49L46.53 0.49Q50.29 0.49 50.68-4.05L50.68-4.05Q50.73-4.35 50.73-4.59L50.73-4.59 49.46-4.64Q49.12-1.07 47.56-1.03L47.56-1.03Q46.29-1.12 46.24-3.56L46.24-3.56 46.24-13.87Q46.24-20.85 39.26-21.24L39.26-21.24Q38.82-21.24 38.38-21.24L38.38-21.24Q32.91-21.24 31.05-18.7L31.05-18.7Q30.47-17.87 30.47-17.04L30.47-17.04Q30.47-15.53 31.88-15.28L31.88-15.28Q32.13-15.23 32.37-15.23L32.37-15.23Q33.49-15.23 34.03-16.65L34.03-16.65Q34.71-18.46 34.96-18.8L34.96-18.8Q35.89-20.02 37.84-20.02L37.84-20.02Q42.43-19.73 42.58-14.99L42.58-14.99 42.58-11.91Q31.1-11.91 29.44-7.13L29.44-7.13Q29.15-6.2 29.15-5.13L29.15-5.13Q29.15-1.42 32.42-0.05L32.42-0.05Q33.74 0.49 35.2 0.49L35.2 0.49Q38.77 0.49 41.21-1.95L41.21-1.95Q42.09-2.88 42.53-3.91L42.53-3.91Q43.11 0.44 46.53 0.49ZM36.81-1.46L36.81-1.46Q33.84-1.46 33.15-4.44L33.15-4.44Q33.01-5.13 33.01-5.96L33.01-5.96Q33.01-9.23 36.77-10.11L36.77-10.11Q38.77-10.55 42.58-10.6L42.58-10.6 42.58-6.69Q41.84-3.32 39.01-1.95L39.01-1.95Q37.89-1.46 36.81-1.46ZM61.96-1.22L61.96-1.22 59.76-1.22 59.76-11.77Q59.91-16.31 62.98-18.31L62.98-18.31Q64.3-19.14 65.67-19.14L65.67-19.14Q68.65-19.14 69.72-16.36L69.72-16.36Q70.16-15.23 70.16-13.82L70.16-13.82 70.16-4.15Q70.16-1.9 68.89-1.46L68.89-1.46Q68.16-1.22 66.5-1.22L66.5-1.22 66.5 0 77.49 0Q77.49-1.07 76.75-1.17L76.75-1.17Q76.56-1.22 76.26-1.22L76.26-1.22 73.82-1.22 73.82-13.33Q73.82-18.21 70.45-20.31L70.45-20.31Q68.89-21.24 67.08-21.24L67.08-21.24Q63.47-21.24 61.13-18.36L61.13-18.36Q60.25-17.24 59.71-15.87L59.71-15.87 59.52-20.75 52.44-20.75 52.44-19.53 56.1-19.53 56.1-4.15Q56.1-1.9 54.83-1.46L54.83-1.46Q54.1-1.22 52.44-1.22L52.44-1.22 52.44 0 63.18 0Q63.18-1.07 62.45-1.17L62.45-1.17Q62.25-1.22 61.96-1.22ZM85.05-13.53L85.05-13.53Q85.15-19.97 89.93-20.02L89.93-20.02Q94.72-19.92 94.77-13.53L94.77-13.53Q94.67-6.88 89.93-6.84L89.93-6.84Q85.1-6.93 85.05-13.53ZM89.98-21.24L89.98-21.24Q85.59-21.24 83-18.41L83-18.41Q81.14-16.31 81.14-13.48L81.14-13.48Q81.14-9.77 84.76-7.32L84.76-7.32Q85.1-7.08 85.44-6.88L85.44-6.88Q82.32-6.88 81.54-4.2L81.54-4.2Q81.39-3.56 81.39-2.93L81.39-2.93Q81.44-0.34 83.49 0.93L83.49 0.93Q81.88 2.64 81.88 4.39L81.88 4.39Q81.88 7.08 85.05 8.4L85.05 8.4Q87.05 9.28 89.98 9.28L89.98 9.28Q97.4 9.28 99.8 5.66L99.8 5.66Q100.58 4.44 100.58 3.08L100.58 3.08Q100.58-1.12 95.74-1.76L95.74-1.76Q95.11-1.86 94.43-1.86L94.43-1.86 85.54-2.05Q83.29-2.2 83.24-4L83.24-4Q83.24-5.27 84.86-5.62L84.86-5.62Q85.2-5.66 85.59-5.66L85.59-5.66 89.89-5.62Q94.23-5.62 96.82-8.54L96.82-8.54Q98.67-10.64 98.67-13.53L98.67-13.53Q98.63-17.19 95.84-19.38L95.84-19.38Q96.28-20.95 97.5-21.24L97.5-21.24Q97.7-21.29 97.89-21.29L97.89-21.29Q98.58-21.29 99.36-20.56L99.36-20.56Q99.89-20.07 100.33-20.07L100.33-20.07Q101.56-20.36 101.75-21.63L101.75-21.63Q101.75-23.14 100.33-23.68L100.33-23.68Q99.8-23.88 99.26-23.88L99.26-23.88Q96.97-23.88 95.55-21.83L95.55-21.83Q95.01-21.04 94.72-20.12L94.72-20.12Q92.52-21.24 89.98-21.24ZM89.98 8.01L89.98 8.01Q85.15 8.01 83.88 5.47L83.88 5.47Q83.54 4.79 83.54 4.1L83.54 4.1Q83.59 2.78 84.71 1.46L84.71 1.46Q85.69 1.66 86.32 1.66L86.32 1.66 93.84 1.76Q97.5 1.81 98.09 3.42L98.09 3.42Q98.23 3.81 98.23 4.39L98.23 4.39Q98.23 6.54 94.23 7.52L94.23 7.52Q92.28 8.01 89.98 8.01ZM113.52-1.22L113.52-1.22 111.07-1.22 111.07-11.77Q111.07-16.21 114.15-18.21L114.15-18.21Q115.42-19.04 116.79-19.04L116.79-19.04Q119.77-19.04 120.94-16.26L120.94-16.26Q121.47-14.94 121.47-13.33L121.47-13.33 121.47-4.15Q121.47-1.9 120.4-1.46L120.4-1.46Q119.72-1.22 118.06-1.22L118.06-1.22 118.06 0 128.8 0Q128.8-1.07 128.07-1.17L128.07-1.17Q127.87-1.22 127.58-1.22L127.58-1.22 125.14-1.22 125.14-13.33Q125.14-18.65 121.62-20.56L121.62-20.56Q120.25-21.24 118.69-21.24L118.69-21.24Q115.08-21.24 112.64-18.6L112.64-18.6Q111.61-17.48 111.07-16.06L111.07-16.06 111.07-31.74 103.75-31.74 103.75-30.52 107.41-30.52 107.41-4.15Q107.41-1.9 106.14-1.46L106.14-1.46Q105.41-1.22 103.75-1.22L103.75-1.22 103.75 0 114.74 0Q114.74-1.07 114-1.17L114-1.17Q113.81-1.22 113.52-1.22ZM149.16 0.49L149.16 0.49Q152.92 0.49 153.31-4.05L153.31-4.05Q153.36-4.35 153.36-4.59L153.36-4.59 152.09-4.64Q151.75-1.07 150.18-1.03L150.18-1.03Q148.91-1.12 148.86-3.56L148.86-3.56 148.86-13.87Q148.86-20.85 141.88-21.24L141.88-21.24Q141.44-21.24 141-21.24L141-21.24Q135.53-21.24 133.68-18.7L133.68-18.7Q133.09-17.87 133.09-17.04L133.09-17.04Q133.09-15.53 134.51-15.28L134.51-15.28Q134.75-15.23 135-15.23L135-15.23Q136.12-15.23 136.66-16.65L136.66-16.65Q137.34-18.46 137.59-18.8L137.59-18.8Q138.51-20.02 140.47-20.02L140.47-20.02Q145.06-19.73 145.2-14.99L145.2-14.99 145.2-11.91Q133.73-11.91 132.07-7.13L132.07-7.13Q131.77-6.2 131.77-5.13L131.77-5.13Q131.77-1.42 135.05-0.05L135.05-0.05Q136.36 0.49 137.83 0.49L137.83 0.49Q141.39 0.49 143.84-1.95L143.84-1.95Q144.71-2.88 145.15-3.91L145.15-3.91Q145.74 0.44 149.16 0.49ZM139.44-1.46L139.44-1.46Q136.46-1.46 135.78-4.44L135.78-4.44Q135.63-5.13 135.63-5.96L135.63-5.96Q135.63-9.23 139.39-10.11L139.39-10.11Q141.39-10.55 145.2-10.6L145.2-10.6 145.2-6.69Q144.47-3.32 141.64-1.95L141.64-1.95Q140.51-1.46 139.44-1.46ZM165.17-1.22L165.17-1.22 162.53-1.22 162.53-31.74 155.21-31.74 155.21-30.52 158.87-30.52 158.87-4.15Q158.87-1.9 157.6-1.46L157.6-1.46Q156.87-1.22 155.21-1.22L155.21-1.22 155.21 0 166.39 0Q166.39-1.07 165.66-1.17L165.66-1.17Q165.46-1.22 165.17-1.22Z" opacity="1" transform="matrix(1,0,0,1,0,0)" fill="white" class="wordmark-text-0" id="SvgjsPath1807"></path></svg></g></svg></g></svg></g></svg></g><g transform="matrix(1,0,0,1,0,0.24661282660331807)"><svg viewBox="0 0 98.64513064133017 98.64513064133017" height="98.64513064133017" width="98.64513064133017"><g><svg xmlns:x="http://ns.adobe.com/Extensibility/1.0/" xmlns:i="http://ns.adobe.com/AdobeIllustrator/10.0/" xmlns:graph="http://ns.adobe.com/Graphs/1.0/" xmlns="http://www.w3.org/2000/svg" xmlns:xlink="http://www.w3.org/1999/xlink" version="1.1" x="0" y="0" viewBox="6 6 52 52" enable-background="new 0 0 64 64" xml:space="preserve" height="98.64513064133017" width="98.64513064133017" class="icon-icon-0" data-fill-palette-color="accent" id="SvgjsSvg1806"><g fill="black"><g fill="black"><path d="M46 42c-2.206 0-4 1.794-4 4s1.794 4 4 4 4-1.794 4-4S48.206 42 46 42z" fill="black"></path><path d="M56 6H8C6.896 6 6 6.896 6 8v48c0 1.104 0.896 2 2 2h48c1.104 0 2-0.896 2-2V8C58 6.896 57.104 6 56 6zM35.414 32.586c0.781 0.781 0.781 2.047 0 2.828C35.023 35.805 34.512 36 34 36s-1.024-0.195-1.414-0.586L23 25.828l-9.586 9.586C13.024 35.805 12.512 36 12 36s-1.024-0.195-1.414-0.586c-0.781-0.781-0.781-2.047 0-2.828L20.172 23l-9.586-9.586c-0.781-0.781-0.781-2.047 0-2.828 0.78-0.781 2.048-0.781 2.828 0L23 20.172l9.586-9.586c0.78-0.781 2.047-0.781 2.828 0 0.781 0.781 0.781 2.047 0 2.828L25.828 23 35.414 32.586zM46 54c-4.411 0-8-3.589-8-8s3.589-8 8-8 8 3.589 8 8S50.411 54 46 54z" fill="black"></path></g></g></svg><g></g></g></svg></g></svg></g><defs><mask></mask></defs></svg><rect width="395.52" height="71.34023922468386" fill="black" stroke="none" visibility="hidden"></rect></g></mask><linearGradient x1="0" x2="1" y1="0.578" y2="0.595" id="d010a2e0-036e-4497-b17c-d0d147ef729e"><stop stop-color="#6ee2f5" offset="0"></stop><stop stop-color="#6454f0" offset="1"></stop></linearGradient><rect width="395.52" height="71.34023922468386" fill="url(#d010a2e0-036e-4497-b17c-d0d147ef729e)" mask="url(#a716149a-54d5-4ff3-bc86-982da478066d)" data-fill-palette-color="primary"></rect><mask id="daba018e-0c08-46a1-8d65-56af2dcf993e"><g id="SvgjsG1832"><svg viewBox="0 0 395.52 71.34023922468386" height="71.34023922468386" width="395.52"><g><svg viewBox="0 0 549.6365460469054 99.1383562945368" height="71.34023922468386" width="395.52"><g></g><g transform="matrix(1,0,0,1,154.11654604690546,0.24661282660331807)"><svg viewBox="0 0 395.52 98.64513064133017" height="98.64513064133017" width="395.52"><g id="SvgjsG1831"><svg viewBox="0 0 395.52 98.64513064133017" height="98.64513064133017" width="395.52" id="SvgjsSvg1830"><g><svg viewBox="0 0 395.52 98.64513064133017" height="98.64513064133017" width="395.52"><g transform="matrix(1,0,0,1,0,0)"><svg width="395.52" viewBox="1.95 -31.74 164.44 41.019999999999996" height="98.64513064133017" data-palette-color="url(#d010a2e0-036e-4497-b17c-d0d147ef729e)"></svg></g></svg></g></svg></g></svg></g><g transform="matrix(1,0,0,1,0,0.24661282660331807)"><svg viewBox="0 0 98.64513064133017 98.64513064133017" height="98.64513064133017" width="98.64513064133017"><g><svg xmlns:x="http://ns.adobe.com/Extensibility/1.0/" xmlns:i="http://ns.adobe.com/AdobeIllustrator/10.0/" xmlns:graph="http://ns.adobe.com/Graphs/1.0/" xmlns="http://www.w3.org/2000/svg" xmlns:xlink="http://www.w3.org/1999/xlink" version="1.1" x="0" y="0" viewBox="6 6 52 52" enable-background="new 0 0 64 64" xml:space="preserve" height="98.64513064133017" width="98.64513064133017" class="icon-icon-0" data-fill-palette-color="accent" id="SvgjsSvg1829"><g fill="white"><g fill="white"><path d="M46 42c-2.206 0-4 1.794-4 4s1.794 4 4 4 4-1.794 4-4S48.206 42 46 42z" fill="white"></path><path d="M56 6H8C6.896 6 6 6.896 6 8v48c0 1.104 0.896 2 2 2h48c1.104 0 2-0.896 2-2V8C58 6.896 57.104 6 56 6zM35.414 32.586c0.781 0.781 0.781 2.047 0 2.828C35.023 35.805 34.512 36 34 36s-1.024-0.195-1.414-0.586L23 25.828l-9.586 9.586C13.024 35.805 12.512 36 12 36s-1.024-0.195-1.414-0.586c-0.781-0.781-0.781-2.047 0-2.828L20.172 23l-9.586-9.586c-0.781-0.781-0.781-2.047 0-2.828 0.78-0.781 2.048-0.781 2.828 0L23 20.172l9.586-9.586c0.78-0.781 2.047-0.781 2.828 0 0.781 0.781 0.781 2.047 0 2.828L25.828 23 35.414 32.586zM46 54c-4.411 0-8-3.589-8-8s3.589-8 8-8 8 3.589 8 8S50.411 54 46 54z" fill="white"></path></g></g></svg><g></g></g></svg></g></svg></g><defs><mask></mask></defs><mask><g id="SvgjsG1828"><svg viewBox="0 0 395.52 71.34023922468386" height="71.34023922468386" width="395.52"><g><svg viewBox="0 0 549.6365460469054 99.1383562945368" height="71.34023922468386" width="395.52"><g><rect width="8.895919683009977" height="99.1383562945368" x="121.93287850261282" y="0" fill="black" opacity="1" stroke-width="0" stroke="transparent" fill-opacity="1" class="rect-qz-0" rx="1%" id="SvgjsRect1827" data-palette-color="url(#d010a2e0-036e-4497-b17c-d0d147ef729e)"></rect></g><g transform="matrix(1,0,0,1,154.11654604690546,0.24661282660331807)"><svg viewBox="0 0 395.52 98.64513064133017" height="98.64513064133017" width="395.52"><g id="SvgjsG1826"><svg viewBox="0 0 395.52 98.64513064133017" height="98.64513064133017" width="395.52" id="SvgjsSvg1825"><g><svg viewBox="0 0 395.52 98.64513064133017" height="98.64513064133017" width="395.52"><g transform="matrix(1,0,0,1,0,0)"><svg width="395.52" viewBox="1.95 -31.74 164.44 41.019999999999996" height="98.64513064133017" data-palette-color="url(#d010a2e0-036e-4497-b17c-d0d147ef729e)"><path d="M10.06-28.03L15.38-28.03Q19.73-28.03 21-24.12L21-24.12Q21.39-22.85 21.39-21.39L21.39-21.39Q21.39-15.04 15.72-14.4L15.72-14.4Q15.14-14.36 14.55-14.36L14.55-14.36 10.06-14.36 10.06-28.03ZM1.95 0L14.94 0Q14.94-1.07 14.16-1.22L14.16-1.22Q13.92-1.27 13.67-1.27L13.67-1.27 10.06-1.27 10.06-12.94 14.36-12.94Q22.36-12.94 24.95-17.48L24.95-17.48Q25.98-19.19 25.98-21.44L25.98-21.44Q25.98-26.27 21.78-28.22L21.78-28.22Q19.53-29.3 16.41-29.3L16.41-29.3 1.95-29.3 1.95-28.03 5.86-28.03 5.86-1.27 1.95-1.27 1.95 0ZM46.53 0.49L46.53 0.49Q50.29 0.49 50.68-4.05L50.68-4.05Q50.73-4.35 50.73-4.59L50.73-4.59 49.46-4.64Q49.12-1.07 47.56-1.03L47.56-1.03Q46.29-1.12 46.24-3.56L46.24-3.56 46.24-13.87Q46.24-20.85 39.26-21.24L39.26-21.24Q38.82-21.24 38.38-21.24L38.38-21.24Q32.91-21.24 31.05-18.7L31.05-18.7Q30.47-17.87 30.47-17.04L30.47-17.04Q30.47-15.53 31.88-15.28L31.88-15.28Q32.13-15.23 32.37-15.23L32.37-15.23Q33.49-15.23 34.03-16.65L34.03-16.65Q34.71-18.46 34.96-18.8L34.96-18.8Q35.89-20.02 37.84-20.02L37.84-20.02Q42.43-19.73 42.58-14.99L42.58-14.99 42.58-11.91Q31.1-11.91 29.44-7.13L29.44-7.13Q29.15-6.2 29.15-5.13L29.15-5.13Q29.15-1.42 32.42-0.05L32.42-0.05Q33.74 0.49 35.2 0.49L35.2 0.49Q38.77 0.49 41.21-1.95L41.21-1.95Q42.09-2.88 42.53-3.91L42.53-3.91Q43.11 0.44 46.53 0.49ZM36.81-1.46L36.81-1.46Q33.84-1.46 33.15-4.44L33.15-4.44Q33.01-5.13 33.01-5.96L33.01-5.96Q33.01-9.23 36.77-10.11L36.77-10.11Q38.77-10.55 42.58-10.6L42.58-10.6 42.58-6.69Q41.84-3.32 39.01-1.95L39.01-1.95Q37.89-1.46 36.81-1.46ZM61.96-1.22L61.96-1.22 59.76-1.22 59.76-11.77Q59.91-16.31 62.98-18.31L62.98-18.31Q64.3-19.14 65.67-19.14L65.67-19.14Q68.65-19.14 69.72-16.36L69.72-16.36Q70.16-15.23 70.16-13.82L70.16-13.82 70.16-4.15Q70.16-1.9 68.89-1.46L68.89-1.46Q68.16-1.22 66.5-1.22L66.5-1.22 66.5 0 77.49 0Q77.49-1.07 76.75-1.17L76.75-1.17Q76.56-1.22 76.26-1.22L76.26-1.22 73.82-1.22 73.82-13.33Q73.82-18.21 70.45-20.31L70.45-20.31Q68.89-21.24 67.08-21.24L67.08-21.24Q63.47-21.24 61.13-18.36L61.13-18.36Q60.25-17.24 59.71-15.87L59.71-15.87 59.52-20.75 52.44-20.75 52.44-19.53 56.1-19.53 56.1-4.15Q56.1-1.9 54.83-1.46L54.83-1.46Q54.1-1.22 52.44-1.22L52.44-1.22 52.44 0 63.18 0Q63.18-1.07 62.45-1.17L62.45-1.17Q62.25-1.22 61.96-1.22ZM85.05-13.53L85.05-13.53Q85.15-19.97 89.93-20.02L89.93-20.02Q94.72-19.92 94.77-13.53L94.77-13.53Q94.67-6.88 89.93-6.84L89.93-6.84Q85.1-6.93 85.05-13.53ZM89.98-21.24L89.98-21.24Q85.59-21.24 83-18.41L83-18.41Q81.14-16.31 81.14-13.48L81.14-13.48Q81.14-9.77 84.76-7.32L84.76-7.32Q85.1-7.08 85.44-6.88L85.44-6.88Q82.32-6.88 81.54-4.2L81.54-4.2Q81.39-3.56 81.39-2.93L81.39-2.93Q81.44-0.34 83.49 0.93L83.49 0.93Q81.88 2.64 81.88 4.39L81.88 4.39Q81.88 7.08 85.05 8.4L85.05 8.4Q87.05 9.28 89.98 9.28L89.98 9.28Q97.4 9.28 99.8 5.66L99.8 5.66Q100.58 4.44 100.58 3.08L100.58 3.08Q100.58-1.12 95.74-1.76L95.74-1.76Q95.11-1.86 94.43-1.86L94.43-1.86 85.54-2.05Q83.29-2.2 83.24-4L83.24-4Q83.24-5.27 84.86-5.62L84.86-5.62Q85.2-5.66 85.59-5.66L85.59-5.66 89.89-5.62Q94.23-5.62 96.82-8.54L96.82-8.54Q98.67-10.64 98.67-13.53L98.67-13.53Q98.63-17.19 95.84-19.38L95.84-19.38Q96.28-20.95 97.5-21.24L97.5-21.24Q97.7-21.29 97.89-21.29L97.89-21.29Q98.58-21.29 99.36-20.56L99.36-20.56Q99.89-20.07 100.33-20.07L100.33-20.07Q101.56-20.36 101.75-21.63L101.75-21.63Q101.75-23.14 100.33-23.68L100.33-23.68Q99.8-23.88 99.26-23.88L99.26-23.88Q96.97-23.88 95.55-21.83L95.55-21.83Q95.01-21.04 94.72-20.12L94.72-20.12Q92.52-21.24 89.98-21.24ZM89.98 8.01L89.98 8.01Q85.15 8.01 83.88 5.47L83.88 5.47Q83.54 4.79 83.54 4.1L83.54 4.1Q83.59 2.78 84.71 1.46L84.71 1.46Q85.69 1.66 86.32 1.66L86.32 1.66 93.84 1.76Q97.5 1.81 98.09 3.42L98.09 3.42Q98.23 3.81 98.23 4.39L98.23 4.39Q98.23 6.54 94.23 7.52L94.23 7.52Q92.28 8.01 89.98 8.01ZM113.52-1.22L113.52-1.22 111.07-1.22 111.07-11.77Q111.07-16.21 114.15-18.21L114.15-18.21Q115.42-19.04 116.79-19.04L116.79-19.04Q119.77-19.04 120.94-16.26L120.94-16.26Q121.47-14.94 121.47-13.33L121.47-13.33 121.47-4.15Q121.47-1.9 120.4-1.46L120.4-1.46Q119.72-1.22 118.06-1.22L118.06-1.22 118.06 0 128.8 0Q128.8-1.07 128.07-1.17L128.07-1.17Q127.87-1.22 127.58-1.22L127.58-1.22 125.14-1.22 125.14-13.33Q125.14-18.65 121.62-20.56L121.62-20.56Q120.25-21.24 118.69-21.24L118.69-21.24Q115.08-21.24 112.64-18.6L112.64-18.6Q111.61-17.48 111.07-16.06L111.07-16.06 111.07-31.74 103.75-31.74 103.75-30.52 107.41-30.52 107.41-4.15Q107.41-1.9 106.14-1.46L106.14-1.46Q105.41-1.22 103.75-1.22L103.75-1.22 103.75 0 114.74 0Q114.74-1.07 114-1.17L114-1.17Q113.81-1.22 113.52-1.22ZM149.16 0.49L149.16 0.49Q152.92 0.49 153.31-4.05L153.31-4.05Q153.36-4.35 153.36-4.59L153.36-4.59 152.09-4.64Q151.75-1.07 150.18-1.03L150.18-1.03Q148.91-1.12 148.86-3.56L148.86-3.56 148.86-13.87Q148.86-20.85 141.88-21.24L141.88-21.24Q141.44-21.24 141-21.24L141-21.24Q135.53-21.24 133.68-18.7L133.68-18.7Q133.09-17.87 133.09-17.04L133.09-17.04Q133.09-15.53 134.51-15.28L134.51-15.28Q134.75-15.23 135-15.23L135-15.23Q136.12-15.23 136.66-16.65L136.66-16.65Q137.34-18.46 137.59-18.8L137.59-18.8Q138.51-20.02 140.47-20.02L140.47-20.02Q145.06-19.73 145.2-14.99L145.2-14.99 145.2-11.91Q133.73-11.91 132.07-7.13L132.07-7.13Q131.77-6.2 131.77-5.13L131.77-5.13Q131.77-1.42 135.05-0.05L135.05-0.05Q136.36 0.49 137.83 0.49L137.83 0.49Q141.39 0.49 143.84-1.95L143.84-1.95Q144.71-2.88 145.15-3.91L145.15-3.91Q145.74 0.44 149.16 0.49ZM139.44-1.46L139.44-1.46Q136.46-1.46 135.78-4.44L135.78-4.44Q135.63-5.13 135.63-5.96L135.63-5.96Q135.63-9.23 139.39-10.11L139.39-10.11Q141.39-10.55 145.2-10.6L145.2-10.6 145.2-6.69Q144.47-3.32 141.64-1.95L141.64-1.95Q140.51-1.46 139.44-1.46ZM165.17-1.22L165.17-1.22 162.53-1.22 162.53-31.74 155.21-31.74 155.21-30.52 158.87-30.52 158.87-4.15Q158.87-1.9 157.6-1.46L157.6-1.46Q156.87-1.22 155.21-1.22L155.21-1.22 155.21 0 166.39 0Q166.39-1.07 165.66-1.17L165.66-1.17Q165.46-1.22 165.17-1.22Z" opacity="1" transform="matrix(1,0,0,1,0,0)" fill="black" class="wordmark-text-0" id="SvgjsPath1824"></path></svg></g></svg></g></svg></g></svg></g><g transform="matrix(1,0,0,1,0,0.24661282660331807)"><svg viewBox="0 0 98.64513064133017 98.64513064133017" height="98.64513064133017" width="98.64513064133017"><g><svg xmlns:x="http://ns.adobe.com/Extensibility/1.0/" xmlns:i="http://ns.adobe.com/AdobeIllustrator/10.0/" xmlns:graph="http://ns.adobe.com/Graphs/1.0/" xmlns="http://www.w3.org/2000/svg" xmlns:xlink="http://www.w3.org/1999/xlink" version="1.1" x="0" y="0" viewBox="6 6 52 52" enable-background="new 0 0 64 64" xml:space="preserve" height="98.64513064133017" width="98.64513064133017" class="icon-icon-0" data-fill-palette-color="accent" id="SvgjsSvg1823"><g fill="black"><g fill="black"><path d="M46 42c-2.206 0-4 1.794-4 4s1.794 4 4 4 4-1.794 4-4S48.206 42 46 42z" fill="black"></path><path d="M56 6H8C6.896 6 6 6.896 6 8v48c0 1.104 0.896 2 2 2h48c1.104 0 2-0.896 2-2V8C58 6.896 57.104 6 56 6zM35.414 32.586c0.781 0.781 0.781 2.047 0 2.828C35.023 35.805 34.512 36 34 36s-1.024-0.195-1.414-0.586L23 25.828l-9.586 9.586C13.024 35.805 12.512 36 12 36s-1.024-0.195-1.414-0.586c-0.781-0.781-0.781-2.047 0-2.828L20.172 23l-9.586-9.586c-0.781-0.781-0.781-2.047 0-2.828 0.78-0.781 2.048-0.781 2.828 0L23 20.172l9.586-9.586c0.78-0.781 2.047-0.781 2.828 0 0.781 0.781 0.781 2.047 0 2.828L25.828 23 35.414 32.586zM46 54c-4.411 0-8-3.589-8-8s3.589-8 8-8 8 3.589 8 8S50.411 54 46 54z" fill="black"></path></g></g></svg><g></g></g></svg></g></svg></g><defs><mask></mask></defs></svg><rect width="395.52" height="71.34023922468386" fill="black" stroke="none" visibility="hidden"></rect></g></mask></svg><rect width="395.52" height="71.34023922468386" fill="black" stroke="none" visibility="hidden"></rect></g></mask><linearGradient x1="0" x2="1" y1="0.578" y2="0.595" id="3fddbc49-5d61-434a-9d1b-5ee17e92948a"><stop stop-color="#6ee2f5" offset="0"></stop><stop stop-color="#6454f0" offset="1"></stop></linearGradient><rect width="395.52" height="71.34023922468386" fill="url(#3fddbc49-5d61-434a-9d1b-5ee17e92948a)" mask="url(#daba018e-0c08-46a1-8d65-56af2dcf993e)" data-fill-palette-color="accent"></rect></svg><rect width="395.52" height="71.34023922468386" fill="none" stroke="none" visibility="hidden"></rect></g></svg></g></svg>